<?xml version="1.0" encoding="utf-8"?>
<!-- Generator: Adobe Illustrator 27.0.0, SVG Export Plug-In . SVG Version: 6.00 Build 0)  -->
<svg version="1.1" id="Layer_1" xmlns="http://www.w3.org/2000/svg" xmlns:xlink="http://www.w3.org/1999/xlink" x="0px" y="0px"
	 viewBox="0 0 1080 1080" style="enable-background:new 0 0 1080 1080;" xml:space="preserve">
<style type="text/css">
	.st0{fill:#FFFFFF;}
</style>
<g id="Group_40">
	<g id="Group_12" transform="translate(32.424 27.727)">
		<path id="Path_22" class="st0" d="M536.92,994.02c-1.27,0.21-2.56,0.35-3.85,0.42c-9.79-0.14-19.45-2.21-28.44-6.09
			c-6.98-2.92-14.35-4.83-21.88-5.67c-7.69,0.06-15.33,1.21-22.7,3.41c-9.22,2.92-18.92,4-28.55,3.18
			c-9.52-2.22-18.5-6.31-26.44-12.02c-6.23-4.33-13.05-7.75-20.25-10.16c-7.49-1.56-15.17-2.04-22.79-1.42
			c-9.65,0.95-19.39-0.03-28.66-2.86c-8.84-4.13-16.78-9.96-23.36-17.16c-5.21-5.56-11.19-10.35-17.75-14.22
			c-6.99-3.05-14.37-5.1-21.93-6.09c-9.67-1.07-19.03-4.07-27.53-8.81c-7.75-5.83-14.27-13.14-19.18-21.51
			c-3.96-6.53-8.83-12.46-14.48-17.59c-6.2-4.45-13.01-7.99-20.22-10.51c-9.22-3.06-17.75-7.92-25.08-14.3
			c-6.38-7.31-11.25-15.81-14.32-25.02c-2.53-7.22-6.08-14.04-10.54-20.25c-5.12-5.61-11.02-10.45-17.52-14.37
			c-8.42-4.94-15.77-11.5-21.64-19.3c-4.69-8.48-7.66-17.8-8.75-27.42c-0.97-7.6-3.02-15.03-6.09-22.05
			c-3.83-6.54-8.58-12.5-14.1-17.69c-7.22-6.6-13.06-14.57-17.17-23.45c-2.79-9.2-3.74-18.87-2.8-28.44
			c0.64-7.69,0.17-15.43-1.39-22.98c-2.37-7.16-5.75-13.95-10.04-20.15c-5.71-7.98-9.78-17.01-11.96-26.57
			c-0.86-9.76,0.21-19.59,3.15-28.94c2.18-7.25,3.3-14.77,3.34-22.34c-0.85-7.66-2.79-15.16-5.77-22.26
			c-3.86-8.83-5.93-18.34-6.09-27.98c1.18-9.72,4.29-19.11,9.14-27.62c3.64-6.64,6.31-13.77,7.94-21.17
			c0.75-7.63,0.41-15.34-1.02-22.87c-1.94-9.49-1.99-19.27-0.15-28.77c3.17-9.15,8.12-17.58,14.54-24.82
			c4.95-5.77,9.05-12.22,12.19-19.15c2.34-7.3,3.61-14.89,3.79-22.55c0.1-9.69,2.09-19.27,5.88-28.19
			c5.01-8.32,11.62-15.57,19.44-21.33c6.08-4.63,11.47-10.1,16-16.25c3.78-6.63,6.59-13.76,8.34-21.19
			c2.09-9.48,6.04-18.46,11.62-26.41c6.62-7.1,14.57-12.83,23.41-16.86c6.9-3.26,13.29-7.49,18.99-12.55
			c5.05-5.7,9.26-12.09,12.5-18.97c4.03-8.88,9.77-16.87,16.89-23.52c7.95-5.57,16.93-9.5,26.41-11.58
			c7.45-1.78,14.6-4.6,21.26-8.38c6.09-4.52,11.51-9.87,16.11-15.9c5.79-7.86,13.09-14.5,21.47-19.52
			c8.91-3.78,18.48-5.76,28.15-5.81c7.67-0.17,15.28-1.44,22.59-3.76c6.88-3.13,13.28-7.21,19.02-12.12
			c7.32-6.51,15.87-11.49,25.15-14.65c9.45-1.87,19.18-1.82,28.6,0.16c7.59,1.44,15.35,1.79,23.05,1.02
			c7.55-1.66,14.82-4.39,21.59-8.13c8.37-4.77,17.61-7.82,27.18-8.97c9.79,0.15,19.46,2.24,28.44,6.17
			c6.98,2.89,14.32,4.79,21.83,5.65c7.68-0.05,15.31-1.2,22.67-3.41c9.23-2.91,18.94-3.99,28.58-3.18
			c9.51,2.2,18.48,6.26,26.41,11.94c6.23,4.33,13.05,7.75,20.25,10.16c7.5,1.54,15.18,2.02,22.81,1.4
			c9.65-0.93,19.39,0.06,28.66,2.89c8.85,4.11,16.8,9.94,23.36,17.16c5.21,5.51,11.17,10.26,17.7,14.11c7,3.07,14.41,5.12,22,6.09
			c9.63,1.1,18.95,4.09,27.42,8.8c7.77,5.85,14.3,13.18,19.22,21.57c3.97,6.51,8.83,12.42,14.45,17.56c6.2,4.44,13,7.97,20.19,10.49
			c9.24,3.07,17.77,7.94,25.12,14.33c6.38,7.31,11.25,15.81,14.32,25.02c2.56,7.21,6.14,14.02,10.64,20.21
			c5.12,5.62,11.03,10.47,17.54,14.4c8.42,4.94,15.77,11.5,21.64,19.3c4.67,8.46,7.65,17.76,8.74,27.36
			c0.97,7.61,3.02,15.04,6.09,22.07c3.81,6.52,8.54,12.47,14.03,17.66c7.2,6.58,13.03,14.52,17.15,23.36
			c2.81,9.24,3.77,18.94,2.82,28.55c-0.64,7.67-0.18,15.4,1.39,22.94c2.37,7.17,5.76,13.97,10.07,20.18
			c5.7,7.97,9.76,16.99,11.94,26.54c0.86,9.77-0.21,19.61-3.17,28.97c-2.17,7.23-3.29,14.73-3.33,22.27
			c0.85,7.67,2.79,15.17,5.77,22.28c3.85,8.83,5.93,18.33,6.09,27.96c-1.16,9.72-4.25,19.12-9.08,27.64
			c-3.63,6.64-6.28,13.78-7.87,21.18c-0.75,7.62-0.41,15.31,1.02,22.83c1.95,9.49,1.99,19.27,0.14,28.77
			c-3.18,9.24-8.17,17.76-14.67,25.06c-4.95,5.75-9.06,12.18-12.19,19.09c-2.34,7.3-3.61,14.89-3.79,22.55
			c-0.08,9.7-2.08,19.29-5.88,28.22c-5.02,8.32-11.63,15.57-19.46,21.33c-6.07,4.6-11.45,10.06-15.97,16.19
			c-3.78,6.64-6.59,13.78-8.34,21.22c-2.09,9.48-6.02,18.45-11.59,26.41c-6.62,7.11-14.59,12.84-23.44,16.85
			c-6.91,3.27-13.31,7.51-19.01,12.59c-5.05,5.68-9.26,12.07-12.48,18.95c-4.02,8.91-9.77,16.94-16.9,23.62
			c-7.93,5.56-16.88,9.5-26.35,11.58c-7.44,1.77-14.59,4.59-21.24,8.38c-6.11,4.5-11.55,9.85-16.15,15.9
			c-5.79,7.86-13.09,14.49-21.46,19.52c-8.9,3.76-18.45,5.74-28.1,5.81c-7.68,0.2-15.3,1.46-22.63,3.76
			c-6.9,3.13-13.32,7.23-19.05,12.19c-7.33,6.48-15.87,11.44-25.12,14.62c-9.44,1.87-19.16,1.8-28.58-0.18
			c-7.6-1.44-15.37-1.79-23.07-1.02c-7.56,1.66-14.84,4.39-21.62,8.13c-7.3,3.97-15.13,6.86-23.25,8.59 M471.62,975.96
			c3.82-0.65,7.7-0.9,11.58-0.74c8.25,0.86,16.33,2.91,23.99,6.09c8.05,3.55,16.72,5.5,25.52,5.74c8.54-1.22,16.78-4.03,24.28-8.29
			c7.43-4.05,15.41-7,23.69-8.74c8.41-0.89,16.91-0.55,25.22,1.02c8.47,1.68,17.17,1.8,25.68,0.36c8.3-2.94,15.94-7.47,22.5-13.34
			c6.3-5.39,13.35-9.84,20.93-13.2c7.99-2.61,16.33-4.03,24.73-4.24c8.68-0.07,17.26-1.8,25.29-5.08c7.48-4.59,14-10.6,19.18-17.69
			c5.05-6.58,11.03-12.4,17.75-17.27c7.25-4.19,15.06-7.32,23.2-9.29c8.52-1.83,16.59-5.3,23.78-10.23
			c6.34-6.05,11.43-13.27,15-21.27c3.56-7.51,8.19-14.47,13.73-20.67c6.21-5.6,13.19-10.28,20.73-13.88
			c7.97-3.56,15.17-8.65,21.2-14.96c4.92-7.22,8.39-15.32,10.23-23.86c1.96-8.12,5.07-15.92,9.23-23.17
			c4.92-6.75,10.79-12.76,17.42-17.85c7.06-5.15,13.07-11.6,17.68-19.02c3.32-8.06,5.04-16.68,5.08-25.39
			c0.22-8.37,1.64-16.67,4.24-24.64c3.38-7.63,7.85-14.72,13.26-21.06c5.85-6.51,10.38-14.1,13.34-22.34
			c1.56-8.56,1.45-17.34-0.34-25.85c-1.54-8.25-1.88-16.68-1.02-25.03c1.74-8.11,4.62-15.92,8.57-23.21
			c4.38-7.64,7.23-16.05,8.38-24.78c-0.28-8.65-2.22-17.16-5.71-25.08c-3.23-7.79-5.33-15.99-6.23-24.38
			c0.01-8.28,1.2-16.51,3.55-24.45c2.7-8.4,3.73-17.25,3.05-26.04c-2.06-8.56-5.78-16.64-10.93-23.79
			c-4.69-6.85-8.35-14.34-10.88-22.24c-1.75-8.24-2.3-16.7-1.64-25.1c0.89-8.61,0.1-17.31-2.33-25.63
			c-3.79-7.92-9.09-15.03-15.61-20.91c-6.01-5.71-11.17-12.26-15.32-19.45c-3.42-7.67-5.72-15.8-6.82-24.13
			c-0.94-8.63-3.54-17.01-7.67-24.65c-5.35-6.93-12-12.75-19.57-17.13c-7.11-4.35-13.56-9.7-19.15-15.88
			c-4.92-6.76-8.83-14.2-11.63-22.08c-2.72-8.29-7.03-15.96-12.7-22.6c-6.66-5.68-14.36-10.01-22.67-12.75
			c-7.85-2.78-15.27-6.66-22.02-11.55c-6.21-5.6-11.57-12.06-15.94-19.19c-4.39-7.55-10.2-14.18-17.11-19.52
			c-7.67-4.15-16.08-6.76-24.75-7.7c-8.3-1.1-16.41-3.39-24.05-6.82c-7.2-4.16-13.77-9.35-19.49-15.39
			c-5.87-6.51-12.96-11.8-20.86-15.59c-8.35-2.47-17.11-3.28-25.78-2.41c-8.36,0.65-16.77,0.1-24.96-1.66
			c-7.9-2.59-15.38-6.29-22.23-10.99c-7.1-5.15-15.15-8.86-23.67-10.92c-8.67-0.68-17.39,0.35-25.66,3.05
			c-8.06,2.38-16.42,3.6-24.82,3.61c-8.24-0.87-16.3-2.92-23.95-6.09c-8.07-3.55-16.75-5.5-25.56-5.74
			c-8.56,1.15-16.81,3.97-24.29,8.29c-7.42,4.05-15.39,7-23.66,8.74c-8.41,0.89-16.91,0.55-25.22-1.02
			c-8.48-1.78-17.22-1.9-25.74-0.34c-8.3,2.95-15.96,7.49-22.54,13.36c-6.3,5.39-13.34,9.84-20.91,13.2
			c-7.95,2.58-16.24,4.01-24.6,4.24c-8.69,0.03-17.3,1.75-25.33,5.08c-7.48,4.6-13.99,10.61-19.19,17.69
			c-5.05,6.57-11.01,12.39-17.71,17.27c-7.26,4.19-15.07,7.32-23.22,9.29c-8.51,1.83-16.59,5.31-23.78,10.23
			c-6.33,6.04-11.42,13.25-15,21.24c-3.57,7.53-8.22,14.5-13.79,20.69c-6.21,5.6-13.19,10.28-20.74,13.88
			c-7.95,3.57-15.14,8.66-21.15,14.98c-4.95,7.2-8.44,15.3-10.27,23.84c-1.96,8.12-5.07,15.92-9.23,23.17
			c-4.92,6.75-10.78,12.76-17.41,17.86c-7.06,5.14-13.05,11.61-17.64,19.03c-3.3,8.06-5.03,16.68-5.08,25.39
			c-0.21,8.38-1.64,16.67-4.24,24.64c-3.4,7.62-7.89,14.7-13.33,21.02c-5.82,6.53-10.34,14.11-13.29,22.34
			c-1.57,8.56-1.45,17.34,0.34,25.85c1.51,8.26,1.81,16.69,0.9,25.04c-1.72,8.11-4.61,15.93-8.57,23.21
			c-4.37,7.62-7.22,16.02-8.38,24.73c0.27,8.66,2.21,17.19,5.73,25.12c3.23,7.79,5.32,15.99,6.21,24.38
			c0.01,8.29-1.19,16.53-3.55,24.48c-2.71,8.39-3.74,17.22-3.05,26.01c2.05,8.58,5.77,16.67,10.94,23.82
			c4.69,6.82,8.36,14.29,10.92,22.16c1.74,8.25,2.29,16.7,1.64,25.11c-0.88,8.62-0.08,17.33,2.35,25.65
			c3.79,7.93,9.09,15.05,15.6,20.95c6.04,5.7,11.22,12.25,15.37,19.45c3.39,7.67,5.67,15.79,6.75,24.1
			c0.94,8.65,3.55,17.03,7.68,24.68c5.35,6.94,12.01,12.76,19.6,17.13c7.09,4.35,13.53,9.69,19.11,15.85
			c4.93,6.77,8.84,14.22,11.63,22.11c2.73,8.28,7.04,15.96,12.7,22.6c6.66,5.65,14.36,9.96,22.66,12.68
			c7.87,2.77,15.3,6.67,22.05,11.58c6.22,5.6,11.6,12.08,15.96,19.23c4.38,7.53,10.19,14.14,17.08,19.46
			c7.69,4.17,16.12,6.8,24.82,7.74c8.28,1.07,16.35,3.35,23.97,6.75c7.21,4.18,13.79,9.37,19.52,15.43
			c5.87,6.51,12.94,11.82,20.84,15.62c8.35,2.46,17.11,3.27,25.77,2.38c8.34-0.63,16.73-0.06,24.91,1.69
			c7.9,2.56,15.39,6.25,22.24,10.95c7.12,5.15,15.18,8.86,23.72,10.93c8.66,0.65,17.37-0.39,25.64-3.05
			c4.38-1.09,8.83-2.16,13.32-2.87"/>
	</g>
	<g id="Group_13" transform="translate(67.724 58.397)">
		<path id="Path_23" class="st0" d="M464.45,656.02l-64.63,10.24l-54.54-344.31l64.63-10.24L464.45,656.02z M585.55,550.83
			c3.05,30.1-2.47,52.9-17.07,68.72s-40.63,26.41-78.46,32.42l-2.59,0.42l-8.92-56.65l2.57-0.43c8.83-0.88,17.08-4.83,23.29-11.17
			c4.96-6.17,6.86-14.25,5.19-21.99l-3.65-23.02c-0.68-10.79-5.11-21-12.52-28.86c-7.65-5.57-17.41-7.39-26.55-4.95l-2.59,0.42
			l-9.02-56.88l2.59-0.4c9.24-0.83,17.64-5.69,22.96-13.28c4.84-8.36,6.37-18.23,4.28-27.66l-3.9-24.68
			c-0.74-6.91-4.95-12.96-11.17-16.05c-8.01-3.44-16.9-4.22-25.39-2.24l-2.59,0.42l-9.02-56.88l2.59-0.42
			c37.84-5.99,66.34-4,85.82,6.4c19.44,10.16,31.49,30.19,36.29,60.28l1.83,11.51c0.59,3.76,0.95,7.56,1.31,11.36
			c1.83,13.47-0.44,27.18-6.52,39.34c-7.01,11.54-17.5,20.54-29.97,25.72l1.64,10.34c13.75,0.79,26.87,6.07,37.32,15.05
			c9.68,10.04,16.01,22.84,18.1,36.62c1.02,4.66,1.87,8.85,2.51,12.86c0.64,4.01,1.14,8.72,1.7,13.71"/>
	</g>
	<g id="Group_14" transform="translate(46.377 59.713)">
		<path id="Path_24" class="st0" d="M150.75,346.09c-0.77-0.3-1.15-1.16-0.86-1.93c0.01-0.03,0.03-0.07,0.04-0.1l7.42-16.94
			c2.88-8.25,11.9-12.61,20.15-9.73c0.12,0.04,0.23,0.08,0.35,0.13c4.95,2.6,8.09,7.69,8.19,13.27c3.95-4.75,10.46-6.48,16.25-4.34
			c8.09,3.99,11.41,13.78,7.42,21.87c-0.08,0.16-0.16,0.32-0.24,0.47l-7.78,17.93c-0.36,0.76-1.25,1.1-2.03,0.78L150.75,346.09z
			 M178.68,337.56c1.58-3.45,0.06-7.52-3.38-9.1c-0.15-0.07-0.31-0.13-0.46-0.19c-3.26-1.61-7.21-0.28-8.82,2.98
			c-0.1,0.2-0.19,0.41-0.27,0.63l-3.44,7.92l12.94,5.68L178.68,337.56z M200.46,345.84c1.61-3.65-0.04-7.92-3.7-9.54
			c-0.04-0.02-0.08-0.04-0.12-0.05c-3.98-1.31-8.27,0.78-9.7,4.71l-3.55,8.13l13.2,5.77L200.46,345.84z"/>
	</g>
	<g id="Group_15" transform="translate(50.621 52.516)">
		<path id="Path_25" class="st0" d="M194.48,262.1c9.61-12.86,27.83-15.49,40.69-5.87c0.05,0.04,0.1,0.08,0.15,0.12
			c12.81,9.51,15.49,27.61,5.98,40.42c-0.07,0.1-0.15,0.2-0.22,0.29c-9.48,12.81-27.55,15.5-40.36,6.02
			c-0.09-0.07-0.18-0.13-0.27-0.2c-12.9-9.54-15.62-27.73-6.09-40.63C194.41,262.2,194.44,262.15,194.48,262.1 M232.67,290.74
			c6.21-8.18,4.61-19.85-3.58-26.06c-8.18-6.21-19.85-4.61-26.06,3.58c-6.21,8.18-4.61,19.85,3.58,26.06
			c0.05,0.04,0.1,0.07,0.15,0.11c8.18,6.09,19.74,4.45,25.91-3.68"/>
	</g>
	<g id="Group_16" transform="translate(56.535 46.481)">
		<path id="Path_26" class="st0" d="M253.77,201.54c12.49-9.99,30.71-7.97,40.7,4.52c0.06,0.08,0.12,0.15,0.18,0.23
			c9.97,12.46,7.96,30.64-4.5,40.62c-0.07,0.06-0.14,0.12-0.22,0.17c-12.41,9.96-30.54,7.97-40.49-4.43
			c-0.07-0.09-0.14-0.17-0.2-0.26c-10.04-12.43-8.1-30.64,4.33-40.68C253.64,201.64,253.71,201.59,253.77,201.54 M283.4,238.85
			c7.99-6.39,9.34-18.01,3.05-26.07c-6.42-7.99-18.07-9.34-26.15-3.03c-8.04,6.38-9.38,18.07-3,26.1
			C263.68,243.89,275.37,245.23,283.4,238.85"/>
	</g>
	<g id="Group_17" transform="translate(63.404 41.694)">
		<path id="Path_27" class="st0" d="M305.86,170.45c-0.44-0.94-0.04-2.07,0.91-2.51c0.04-0.02,0.07-0.03,0.11-0.05l6.43-2.99
			c0.97-0.41,2.1,0,2.59,0.93l9.14,19.83l8.85-29.36c0.12-0.6,0.52-1.12,1.08-1.38l7.33-3.4c0.85-0.41,1.88-0.06,2.29,0.79
			c0.2,0.41,0.23,0.87,0.08,1.3l-9.21,30.47l31.91,15.03c0.86,0.46,1.18,1.54,0.71,2.4c-0.19,0.34-0.48,0.62-0.84,0.77l-7.99,3.71
			c-0.49,0.27-1.08,0.3-1.59,0.08l-30.01-14.77l10.32,22.34c0.41,0.97,0.01,2.08-0.91,2.58l-6.49,3.05
			c-0.96,0.44-2.1,0.01-2.54-0.95c-0.01-0.02-0.02-0.04-0.03-0.06L305.86,170.45z"/>
	</g>
	<g id="Group_18" transform="translate(70.744 39.56)">
		<path id="Path_28" class="st0" d="M372.95,141.69c-0.11-0.81,0.41-1.57,1.21-1.75l2.03-0.38l39.94,28.2h0.11l-6.72-32.65
			c-0.16-0.83,0.38-1.64,1.21-1.81l7.28-1.47c0.82-0.16,1.63,0.35,1.82,1.17l10.87,53.21c0.1,0.8-0.42,1.56-1.21,1.74l-1.91,0.4
			l-40.4-29.56h-0.1l6.9,33.98c0.18,0.83-0.36,1.65-1.19,1.83l-7.17,1.46c-0.83,0.15-1.63-0.38-1.81-1.21L372.95,141.69z"/>
	</g>
	<g id="Group_19" transform="translate(79.175 39.262)">
		<path id="Path_29" class="st0" d="M480.72,129.12c15.98,0.88,28.22,14.56,27.33,30.53c0,0.05-0.01,0.11-0.01,0.16
			c-0.83,15.86-14.36,28.05-30.23,27.22c-0.11-0.01-0.23-0.01-0.34-0.02c-15.86-0.77-28.09-14.26-27.32-30.12
			c0.01-0.12,0.01-0.23,0.02-0.35c0.81-15.96,14.4-28.24,30.37-27.43C480.6,129.11,480.66,129.11,480.72,129.12 M478.03,176.61
			c10.19,0.56,18.92-7.22,19.53-17.41c0.54-10.21-7.25-18.95-17.46-19.57c-10.19-0.47-18.86,7.35-19.43,17.53
			C460.11,167.32,467.87,176.02,478.03,176.61"/>
	</g>
	<g id="Group_20" transform="translate(87.549 40.795)">
		<path id="Path_30" class="st0" d="M564.7,144.53c15.26,4.84,23.7,21.12,18.87,36.38c-0.03,0.08-0.05,0.16-0.08,0.24
			c-4.8,15.22-21.02,23.66-36.23,18.87c-0.09-0.03-0.18-0.06-0.27-0.09c-15.22-4.82-23.65-21.06-18.84-36.28
			c0.02-0.06,0.04-0.12,0.06-0.18c4.78-15.27,21.03-23.77,36.3-18.99C564.57,144.48,564.64,144.51,564.7,144.53 M550.21,189.87
			c9.75,3.12,20.18-2.22,23.36-11.94c3.05-9.78-2.32-20.2-12.06-23.4c-9.77-3.03-20.16,2.37-23.28,12.12
			C535.13,176.36,540.49,186.75,550.21,189.87"/>
	</g>
	<g id="Group_21" transform="translate(94.601 43.611)">
		<path id="Path_31" class="st0" d="M619.09,169.83c0.55-0.91,1.73-1.2,2.63-0.66c0.01,0.01,0.02,0.01,0.03,0.02l6.09,3.72
			c0.91,0.53,1.22,1.69,0.69,2.6c-0.01,0.02-0.03,0.04-0.04,0.07l-11.34,18.69l29.39-9.07c0.57-0.24,1.22-0.2,1.75,0.11l6.91,4.21
			c0.83,0.45,1.13,1.49,0.68,2.32c-0.23,0.41-0.61,0.71-1.07,0.83l-30.47,9.37l5.32,34.99c0.09,0.98-0.62,1.84-1.6,1.94
			c-0.39,0.04-0.78-0.06-1.11-0.26l-7.55-4.57c-0.5-0.24-0.86-0.7-0.96-1.25l-4.58-33.29l-12.8,21.15
			c-0.58,0.86-1.72,1.14-2.64,0.65l-6.09-3.71c-0.92-0.53-1.24-1.7-0.71-2.62c0.01-0.02,0.02-0.04,0.04-0.06L619.09,169.83z"/>
	</g>
	<g id="Group_22" transform="translate(104.906 54.082)">
		<path id="Path_32" class="st0" d="M730.41,265.06c0.7-0.48,1.65-0.3,2.13,0.4c0,0,0,0,0,0l1.79,2.58c0.47,0.7,0.29,1.65-0.4,2.13
			l-40.81,28.2l13.2,19.15c0.48,0.68,0.33,1.61-0.35,2.1c-0.01,0.01-0.02,0.02-0.04,0.03l-1.91,1.32c-0.71,0.49-1.68,0.32-2.17-0.39
			L686,297.56c-0.47-0.69-0.29-1.63,0.4-2.1L730.41,265.06z"/>
	</g>
	<g id="Group_23" transform="translate(108.348 60.049)">
		<path id="Path_33" class="st0" d="M773.36,337.57c6.03,14.88-1.14,31.83-16.01,37.86c-0.04,0.01-0.07,0.03-0.11,0.04
			c-14.8,6.04-31.69-1.06-37.73-15.85c-0.03-0.08-0.06-0.16-0.1-0.24c-6.04-14.73,1-31.58,15.74-37.62c0.1-0.04,0.2-0.08,0.3-0.12
			c14.77-6.11,31.7,0.92,37.81,15.69C773.3,337.41,773.33,337.49,773.36,337.57 M724.61,357.26c4.86,11.96,18.47,17.76,30.47,12.98
			c11.98-4.9,17.79-18.51,13.04-30.55c-4.95-11.94-18.58-17.67-30.57-12.84c-11.96,4.87-17.72,18.5-12.89,30.47"/>
	</g>
	<g id="Group_24" transform="translate(110.37 68.505)">
		<path id="Path_34" class="st0" d="M791.12,396.86c0.82-0.08,1.55,0.5,1.67,1.32l0.26,2.03l-40.25,42.23v0.18l42.76-5.76
			c0.86-0.11,1.64,0.5,1.75,1.35l0.36,2.78c0.09,0.84-0.49,1.6-1.32,1.75l-54.04,7.23c-0.8,0.09-1.52-0.49-1.61-1.3
			c0-0.01,0-0.02,0-0.02l-0.2-1.44l41.05-43.01v-0.1l-43.62,5.85c-0.84,0.13-1.62-0.44-1.75-1.28c0-0.02,0-0.03-0.01-0.05
			l-0.38-2.79c-0.1-0.85,0.5-1.62,1.34-1.74L791.12,396.86z"/>
	</g>
	<g id="Group_25" transform="translate(110.572 76.824)">
		<path id="Path_35" class="st0" d="M795.78,505.57c-0.72,7.22-4.18,13.89-9.68,18.63c-0.65,0.58-1.64,0.52-2.22-0.13
			c-0.02-0.02-0.04-0.04-0.05-0.06c-0.62-0.78-1.33-1.79-2.03-2.51s-0.54-1.29,0.38-2.11c4.28-3.77,7.11-8.91,8.01-14.54
			c1.24-12.57-7.95-23.76-20.51-24.99c-0.01,0-0.02,0-0.02,0c-12.57-1.65-24.11,7.17-25.82,19.73c-0.67,5.02-0.08,10.12,1.72,14.85
			l11.3,1.29l1.02-9.26c0.05-0.81,0.74-1.42,1.54-1.38c0.02,0,0.05,0,0.07,0.01l3.05,0.36c0.82,0.09,1.41,0.82,1.33,1.64
			c0,0.04-0.01,0.08-0.02,0.11l-1.57,13.84c-0.13,0.82-0.88,1.4-1.71,1.31l-18.41-2.1c-0.51-0.11-0.94-0.42-1.21-0.86
			c-2.79-6.42-3.84-13.45-3.05-20.4c1.71-15.95,16.02-27.49,31.96-25.78c0.08,0.01,0.16,0.02,0.23,0.03
			c16,1.8,27.51,16.24,25.71,32.24C795.78,505.5,795.78,505.53,795.78,505.57"/>
	</g>
	<g id="Group_26" transform="translate(107.307 87.451)">
		<path id="Path_36" class="st0" d="M770.14,593.01c0.76,0.37,1.08,1.27,0.74,2.03l-1.35,2.86c-0.37,0.76-1.27,1.08-2.03,0.73
			l-44.9-20.89l-9.8,21.09c-0.36,0.76-1.27,1.09-2.03,0.73l-2.16-1.02c-0.74-0.32-1.08-1.17-0.76-1.91
			c0.02-0.04,0.04-0.08,0.06-0.12l11.78-25.33c0.33-0.76,1.21-1.12,1.97-0.79c0.02,0.01,0.04,0.02,0.06,0.03L770.14,593.01z"/>
	</g>
	<g id="Group_27" transform="translate(103.368 91.807)">
		<path id="Path_37" class="st0" d="M704.12,611.04l29,52.07c0.31,0.51,0.28,1.15-0.08,1.62l-0.47,0.66
			c-0.35,0.49-0.97,0.7-1.54,0.54l-58.17-12.76c-0.78-0.11-1.32-0.84-1.2-1.61c0.04-0.28,0.16-0.54,0.35-0.74l1.93-2.57
			c0.35-0.49,0.96-0.72,1.54-0.59l14.22,3.14l17.08-23.02l-7.16-12.64c-0.32-0.5-0.3-1.15,0.05-1.63l1.96-2.6
			c0.39-0.67,1.25-0.89,1.92-0.5C703.8,610.56,704,610.78,704.12,611.04 M695.06,652.02c9.38,2.09,18.84,4.24,28.26,6.33l0.38-0.54
			l-14.22-25.23L695.06,652.02z"/>
	</g>
	<g id="Group_28" transform="translate(99.84 97.817)">
		<path id="Path_38" class="st0" d="M665.36,667.01c0,0.62,0.07,1.31,0.11,1.95c0.08,1.32-0.17,2.39-1.65,2.42
			c-5.15-0.22-10.22,1.35-14.35,4.44c-4.42,3.09-5.49,9.18-2.39,13.59c0.06,0.08,0.12,0.17,0.18,0.25
			c3.71,4.19,9.53,3.44,19.07,0.23c9.24-3.03,15.66-3.8,21.75,3.07c5.25,6.67,4.09,16.33-2.58,21.58c-0.26,0.21-0.53,0.4-0.81,0.59
			c-3.71,3.21-8.25,5.32-13.09,6.09c-0.99,0.21-1.96-0.42-2.17-1.41c-0.02-0.11-0.04-0.22-0.04-0.32c-0.07-0.58-0.2-1.23-0.26-1.81
			c-0.3-0.97,0.24-2,1.21-2.3c0.13-0.04,0.25-0.06,0.38-0.08c3.77-0.48,7.36-1.93,10.41-4.19c4.52-2.84,5.88-8.8,3.04-13.32
			c-0.17-0.26-0.35-0.52-0.54-0.77c-3.56-4.06-8.75-3.71-15.73-1.33c-11.17,3.91-19.11,5.47-25.39-1.55
			c-5.22-7.19-3.65-17.26,3.52-22.51c4.77-4.08,10.83-6.34,17.1-6.38C664,665.25,665.05,665.25,665.36,667.01"/>
	</g>
	<g id="Group_29" transform="translate(95.877 101.69)">
		<path id="Path_39" class="st0" d="M634.08,744.01l12.1-7.23c0.68-0.45,1.6-0.26,2.05,0.42c0.02,0.04,0.05,0.08,0.07,0.12
			l1.21,2.03c0.41,0.73,0.19,1.64-0.51,2.1l-29.46,17.61c-0.72,0.43-1.65,0.2-2.1-0.51l-1.21-2.03c-0.42-0.73-0.17-1.67,0.56-2.1
			c0.01-0.01,0.02-0.01,0.03-0.02l12.03-7.22l-25.58-42.6c-0.4-0.74-0.16-1.67,0.55-2.12l2.62-1.58c0.73-0.39,1.64-0.16,2.1,0.54
			L634.08,744.01z"/>
	</g>
	<g id="Group_30" transform="translate(91.74 103.797)">
		<path id="Path_40" class="st0" d="M591.56,770.34c0.3,0.79-0.06,1.68-0.82,2.03l-2.95,1.24c-0.8,0.29-1.68-0.08-2.03-0.85
			l-20.41-49.37c-0.33-0.79,0.05-1.7,0.84-2.03c0,0,0,0,0,0l2.96-1.27c0.8-0.27,1.67,0.09,2.03,0.85L591.56,770.34z"/>
	</g>
	<g id="Group_31" transform="translate(84.194 105.157)">
		<path id="Path_41" class="st0" d="M552.16,786.82c0.1,0.82-0.44,1.57-1.24,1.75l-2.03,0.4l-44.69-37.15h-0.12l8.55,42.15
			c0.16,0.83-0.37,1.63-1.19,1.81l-2.78,0.57c-0.82,0.12-1.6-0.4-1.81-1.21l-10.73-53.12c-0.17-0.79,0.34-1.57,1.13-1.74
			c0.02,0,0.04-0.01,0.06-0.01l1.4-0.31l45.5,37.92h0.09l-8.74-42.99c-0.19-0.82,0.33-1.64,1.15-1.82c0.01,0,0.01,0,0.02,0
			l2.76-0.55c0.82-0.17,1.63,0.35,1.81,1.18c0,0,0,0.01,0,0.01L552.16,786.82z"/>
	</g>
	<g id="Group_32" transform="translate(76.41 106.077)">
		<path id="Path_42" class="st0" d="M444.47,799c-7.23-0.26-14.08-3.26-19.18-8.4c-0.63-0.61-0.64-1.62-0.03-2.25
			c0.01-0.01,0.02-0.02,0.03-0.03c0.78-0.67,1.7-1.44,2.37-2.13c0.67-0.69,1.25-0.67,2.03,0.16c4.07,4.03,9.42,6.51,15.12,7
			c12.55,0.4,23.04-9.45,23.44-22c0-0.04,0-0.09,0-0.13c0.78-12.59-8.74-23.46-21.33-24.33c-5.06-0.32-10.11,0.62-14.72,2.74
			l-0.47,11.29l9.25,0.42c0.81,0.01,1.47,0.67,1.46,1.48c0,0.01,0,0.03,0,0.04l-0.09,2.97c-0.01,0.84-0.7,1.5-1.54,1.49
			c-0.02,0-0.05,0-0.07,0l-13.95-0.65c-0.82-0.08-1.43-0.78-1.39-1.59l0.82-18.45c0.09-0.48,0.33-0.92,0.69-1.25
			c6.22-3.21,13.17-4.74,20.16-4.44c15.97,0.63,28.41,14.09,27.79,30.06c0,0.07-0.01,0.13-0.01,0.2
			c-0.68,16.05-14.25,28.51-30.3,27.83c-0.06,0-0.11-0.01-0.17-0.01"/>
	</g>
	<g id="Group_33" transform="translate(64.314 101.548)">
		<path id="Path_43" class="st0" d="M331.89,775.13c-14.84-6.25-21.8-23.34-15.55-38.18c0.02-0.04,0.03-0.08,0.05-0.12
			c4.44-10.64,14.77-17.63,26.3-17.8l-2.78-17.71c-0.23-0.79,0.23-1.62,1.02-1.85c0.36-0.1,0.74-0.07,1.08,0.1l3.76,1.58
			c0.47,0.25,0.79,0.72,0.85,1.25l2.33,17.16c1.94,0.45,3.84,1.07,5.67,1.86c14.73,6.14,21.7,23.06,15.56,37.79
			c-0.04,0.1-0.09,0.21-0.13,0.31c-6.15,14.82-23.15,21.84-37.97,15.69C332.01,775.18,331.95,775.16,331.89,775.13 M352.36,726.62
			c-11.91-5.02-25.64,0.53-30.71,12.41c-5.03,11.96,0.52,25.74,12.43,30.89c11.96,4.91,25.65-0.7,30.71-12.6
			c5-11.91-0.57-25.63-12.46-30.67"/>
	</g>
	<g id="Group_34" transform="translate(56.711 99.465)">
		<path id="Path_44" class="st0" d="M278.77,742.27c-0.53,0.66-1.48,0.8-2.17,0.31l-2.44-1.87c-0.66-0.49-0.8-1.42-0.31-2.07
			c0.01-0.02,0.03-0.04,0.05-0.06l20.31-26.78c5.62-6.11,5.23-15.62-0.88-21.24c-0.39-0.36-0.79-0.69-1.21-1
			c-6.48-5.18-15.94-4.12-21.11,2.37c-0.32,0.41-0.63,0.83-0.91,1.27l-20.46,26.87c-0.53,0.69-1.51,0.83-2.21,0.3
			c0,0-0.01,0-0.01-0.01l-2.44-1.85c-0.67-0.53-0.79-1.48-0.28-2.16l20.7-27.15c6.64-9.42,19.66-11.68,29.08-5.04
			c0.38,0.27,0.76,0.55,1.12,0.85c9.3,6.68,11.41,19.64,4.73,28.93c-0.29,0.4-0.59,0.79-0.9,1.16L278.77,742.27z"/>
	</g>
	<g id="Group_35" transform="translate(52.277 93.259)">
		<path id="Path_45" class="st0" d="M263.84,664.81l-57.57,16c-0.57,0.18-1.19-0.02-1.55-0.5l-0.51-0.62
			c-0.41-0.45-0.49-1.1-0.2-1.64l26.15-53.65c0.29-0.72,1.11-1.08,1.83-0.79c0.26,0.1,0.49,0.28,0.64,0.52l2.09,2.49
			c0.4,0.44,0.49,1.08,0.22,1.61l-6.43,13.14l18.39,22.08l14.03-4.06c0.58-0.16,1.2,0.04,1.57,0.51l2.03,2.47
			c0.56,0.55,0.56,1.45,0.01,2.01c-0.2,0.2-0.46,0.34-0.74,0.4 M226.07,646.27c-4.27,8.73-8.59,17.4-12.82,26.08l0.4,0.5l27.94-7.93
			L226.07,646.27z"/>
	</g>
	<g id="Group_36" transform="translate(48.646 88.48)">
		<path id="Path_46" class="st0" d="M174.38,632.7c-0.72,0.4-1.62,0.14-2.02-0.58c-0.01-0.01-0.01-0.02-0.02-0.03l-1.48-2.76
			c-0.41-0.72-0.21-1.63,0.47-2.1L215,603.58l-11.1-20.46c-0.4-0.75-0.12-1.68,0.62-2.09l2.03-1.09c0.73-0.38,1.63-0.11,2.03,0.61
			l13.36,24.57c0.42,0.73,0.17,1.66-0.56,2.08c-0.01,0-0.01,0.01-0.02,0.01L174.38,632.7z"/>
	</g>
	<g id="Group_37" transform="translate(46.001 85.561)">
		<path id="Path_47" class="st0" d="M149.49,577.11c-0.79,0.26-1.65-0.16-1.92-0.94l-1.12-3.05c-0.22-0.78,0.17-1.61,0.92-1.93
			l50.46-18.08c0.8-0.26,1.66,0.14,1.97,0.92l1.09,3.05c0.26,0.81-0.14,1.69-0.92,2.03L149.49,577.11z"/>
	</g>
	<g id="Group_38" transform="translate(44.314 80.497)">
		<path id="Path_48" class="st0" d="M140.04,527.73l2.69,13.77c0.15,0.84-0.38,1.65-1.21,1.85l-2.35,0.41
			c-0.84,0.15-1.65-0.4-1.81-1.24l-6.42-33.62c-0.15-0.83,0.39-1.63,1.22-1.8l2.32-0.43c0.83-0.14,1.62,0.41,1.79,1.24l2.6,13.77
			l48.75-9.27c0.82-0.11,1.59,0.41,1.79,1.21l0.57,3.05c0.12,0.81-0.4,1.59-1.2,1.78L140.04,527.73z"/>
	</g>
	<g id="Group_39" transform="translate(43.961 73.119)">
		<path id="Path_49" class="st0" d="M157.13,465.44l-27.11,19.3c-0.67,0.47-1.59,0.31-2.07-0.36c-0.19-0.27-0.29-0.6-0.27-0.93
			v-3.81c0.09-0.51,0.36-0.96,0.77-1.27l22.63-16.21l-22.44-16.45c-0.45-0.28-0.73-0.76-0.73-1.29v-3.79
			c-0.03-0.82,0.6-1.51,1.42-1.54c0.34-0.01,0.67,0.09,0.94,0.29l26.8,19.84l25.78,0.15c0.82,0.03,1.48,0.69,1.5,1.51v3.15
			c0.02,0.82-0.62,1.5-1.44,1.52c-0.03,0-0.07,0-0.1,0L157.13,465.44z"/>
	</g>
</g>
</svg>
