<svg xmlns="http://www.w3.org/2000/svg" xmlns:xlink="http://www.w3.org/1999/xlink" version="1.1" id="Layer_1" x="0px" y="0px" style="enable-background:new 0 0 1080 1080;" xml:space="preserve" viewBox="65.54 389.66 948.92 292.72">
<style type="text/css">
	.st0{fill:#FFFFFF;}
	.st1{fill:#FFDE6A;}
</style>
<g>
	<path id="Path_1" class="st0" d="M579.03,434.1v144.21h33.78l-3.03-60.12l-9.09-84.09H579.03z M579.03,391.95v30.51h31.22   l9.55,94.8l13.99,61.05h53.11v-30.78h-30.55l-12.78-96.2l-13.98-59.38L579.03,391.95z M653.11,391.95l1.62,59.38l10.72,84.56h21.45   V391.95L653.11,391.95z"/>
	<g id="Group_5">
		<path id="Path_2" class="st0" d="M750.7,580.5v-29c2.4-0.61,4.52-2.03,5.99-4.02c1.44-2.11,2.2-4.61,2.18-7.17    c0.39-7.92,0.66-16.62,0.81-26.1c0.16-9.46,0.24-19.22,0.24-29.22s-0.09-19.77-0.24-29.24s-0.42-18.19-0.81-26.1    c0.02-2.5-0.74-4.95-2.18-6.99c-1.49-1.93-3.58-3.32-5.94-3.96v-29.01c11.91-0.39,23.48,3.97,32.16,12.13    c7.41,9.88,11.17,22.02,10.62,34.36c0.32,7.76,0.55,15.76,0.69,24.01c0.15,8.24,0.23,16.57,0.24,24.97    c0,8.43-0.08,16.74-0.24,24.92s-0.39,16.08-0.69,23.69c0.55,12.38-3.22,24.56-10.65,34.48c-8.7,8.18-20.29,12.58-32.22,12.23     M739.03,580.49c-12.08,0.47-23.85-3.83-32.79-11.97c-7.67-9.89-11.5-22.23-10.77-34.73c-0.16-7.6-0.27-15.52-0.34-23.75    c-0.07-8.23-0.1-16.57-0.09-25.03c0-8.46,0.04-16.81,0.12-25.04c0.08-8.23,0.19-16.15,0.34-23.76    c-0.74-12.44,3.08-24.72,10.75-34.54c8.95-8.13,20.73-12.43,32.82-11.96v29.01c-2.4,0.62-4.53,2.01-6.06,3.96    c-1.46,2.05-2.27,4.48-2.34,6.99c-0.29,7.92-0.53,16.62-0.73,26.1c-0.19,9.48-0.3,19.23-0.31,29.25c0,10,0.09,19.77,0.28,29.22    s0.46,18.19,0.73,26.1c0.06,2.57,0.87,5.06,2.34,7.17c1.52,1.97,3.65,3.39,6.06,4.02L739.03,580.49z"/>
		<path id="Path_3" class="st0" d="M979.04,578.3l-13.28-47.07l20.5-49.18l28.2,96.25H979.04z M910.09,468.1v-76.17h37.27    l-0.47,45.18l-6.76,30.98H910.09z M910.09,578.3v-99.47h36.8l11.19-41.71l16.73-45.18h38.2l-67.3,158.4v27.97H910.09z"/>
		<path id="Path_4" class="st0" d="M741.73,551.7h6.77c1.44,0,2.87-0.27,4.22-0.79v27.86c0,0.96-0.77,1.73-1.72,1.74    c0,0-0.01,0-0.01,0h-11.64c-1,0-1.82-0.81-1.82-1.82v-27.78c1.35,0.52,2.78,0.79,4.22,0.79"/>
		<path id="Path_5" class="st0" d="M741.58,418.51h6.77c1.44,0,2.87,0.27,4.22,0.79v-27.85c0.01-0.96-0.76-1.74-1.72-1.75    c-0.01,0-0.02,0-0.03,0h-11.64c-1,0-1.82,0.81-1.82,1.82v27.78C738.72,418.79,740.15,418.52,741.58,418.51"/>
		<path id="Path_6" class="st0" d="M858.01,580.5v-29c2.4-0.61,4.52-2.03,5.99-4.02c1.42-2.12,2.17-4.62,2.15-7.17    c0.41-7.92,0.68-16.62,0.83-26.1c0.16-9.46,0.23-19.22,0.23-29.22s-0.07-19.77-0.23-29.24c-0.16-9.47-0.42-18.19-0.83-26.1    c0.03-2.5-0.73-4.95-2.18-6.99c-1.5-1.93-3.59-3.31-5.94-3.96v-29.01c11.92-0.41,23.51,3.96,32.21,12.12    c7.42,9.88,11.18,22.02,10.65,34.37c0.29,7.76,0.52,15.76,0.69,24.01c0.17,8.24,0.25,16.57,0.23,24.97    c0,8.43-0.08,16.74-0.23,24.92c-0.16,8.18-0.39,16.08-0.69,23.7c0.54,12.38-3.23,24.56-10.67,34.48    C881.52,576.46,869.94,580.85,858.01,580.5 M846.37,580.51c-12.08,0.46-23.86-3.84-32.8-11.98c-7.67-9.89-11.5-22.23-10.77-34.73    c-0.15-7.6-0.26-15.52-0.36-23.75c-0.09-8.23-0.13-16.57-0.11-25.03c0-8.46,0.03-16.81,0.1-25.04c0.07-8.23,0.19-16.15,0.36-23.76    c-0.72-12.44,3.11-24.71,10.77-34.53c8.94-8.13,20.72-12.43,32.8-11.97v29.01c-2.4,0.61-4.53,2-6.06,3.96    c-1.46,2.04-2.28,4.48-2.34,6.99c-0.32,7.92-0.56,16.62-0.73,26.1s-0.27,19.22-0.29,29.24c0,10,0.09,19.77,0.29,29.22    s0.44,18.19,0.73,26.1c0.06,2.57,0.87,5.06,2.34,7.17c1.51,1.98,3.65,3.4,6.06,4.02L846.37,580.51z"/>
		<path id="Path_7" class="st0" d="M848.98,551.7h6.77c1.44,0,2.87-0.27,4.22-0.79v27.86c0,0.96-0.77,1.73-1.72,1.74    c0,0-0.01,0-0.01,0h-11.64c-1,0-1.82-0.81-1.82-1.82v-27.78c1.35,0.52,2.78,0.79,4.22,0.79"/>
		<path id="Path_8" class="st0" d="M848.98,418.51h6.77c1.44,0,2.87,0.27,4.22,0.79v-27.85c0.01-0.96-0.76-1.74-1.72-1.75    c-0.01,0-0.02,0-0.03,0h-11.64c-1,0-1.82,0.81-1.82,1.82v27.78C846.11,418.79,847.54,418.52,848.98,418.51"/>
		<path id="Path_9" class="st0" d="M113.02,578.3v-30.77h1.37c4.73,0.31,9.42-1.07,13.22-3.9c3.16-2.85,4.85-6.99,4.58-11.24v-12.37    c0.54-5.77-0.94-11.56-4.18-16.37c-3.6-3.54-8.58-5.31-13.61-4.84h-1.37v-30.7h1.37c4.94,0.32,9.77-1.54,13.22-5.09    c3.27-4.01,4.9-9.1,4.58-14.26v-13.27c0.19-3.74-1.54-7.32-4.58-9.5c-3.96-2.44-8.58-3.6-13.22-3.3h-1.37v-30.75h1.37    c20.45,0,35.36,3.51,44.74,10.53c9.38,7.02,14.08,18.66,14.11,34.92v6.29c0,2.02-0.1,4.04-0.27,6.06    c-0.14,7.25-2.46,14.29-6.64,20.22c-4.66,5.5-10.97,9.35-17.98,11.01v5.59c7.2,1.6,13.68,5.5,18.47,11.11    c4.25,6.1,6.5,13.37,6.44,20.8c0.17,2.56,0.26,4.92,0.26,7.09c0,2.18-0.09,4.63-0.26,7.33c-0.82,16.16-5.73,27.77-14.72,34.85    s-23.7,10.6-44.14,10.57H113.02z"/>
		<rect id="Rectangle_6" x="65.54" y="391.93" class="st0" width="34.94" height="186.36"/>
		<path id="Path_10" class="st0" d="M466.72,578.3l-13.3-47.05l20.5-49.16l28.24,96.2H466.72z M397.77,468.11v-76.18h37.26    l-0.46,45.19l-6.76,30.98H397.77z M397.77,578.3v-99.47h36.8l11.19-41.7l16.73-45.19h38.21L433.4,550.35v27.95H397.77z"/>
		<path id="Path_11" class="st0" d="M239.09,580.51V551.5c2.4-0.61,4.52-2.03,5.99-4.03c1.44-2.1,2.2-4.6,2.18-7.14    c0.39-7.92,0.66-16.62,0.81-26.1c0.15-9.48,0.23-19.23,0.24-29.25c0-10.01-0.08-19.75-0.24-29.22c-0.16-9.48-0.43-18.18-0.81-26.1    c0.02-2.5-0.74-4.94-2.18-6.98c-1.5-1.93-3.58-3.33-5.94-3.96v-29.02c11.93-0.41,23.52,3.95,32.22,12.12    c7.4,9.88,11.15,22.03,10.6,34.37c0.32,7.76,0.55,15.76,0.69,24.01c0.15,8.24,0.23,16.57,0.24,24.97c0,8.41-0.08,16.72-0.24,24.92    s-0.39,16.1-0.69,23.7c0.54,12.38-3.22,24.56-10.65,34.48C262.61,576.46,251.02,580.85,239.09,580.51 M227.45,580.51    c-12.08,0.46-23.86-3.85-32.8-12c-7.66-9.89-11.49-22.22-10.77-34.71c-0.16-7.6-0.27-15.52-0.34-23.75s-0.11-16.57-0.12-25.03    c0-8.45,0.04-16.8,0.12-25.04c0.08-8.24,0.19-16.16,0.34-23.75c-0.72-12.44,3.11-24.71,10.77-34.54    c8.95-8.12,20.72-12.41,32.8-11.97v29.01c-2.4,0.63-4.52,2.02-6.06,3.96c-1.46,2.04-2.27,4.47-2.34,6.98    c-0.29,7.92-0.53,16.62-0.73,26.1c-0.19,9.48-0.3,19.23-0.31,29.25c0,10.02,0.09,19.77,0.28,29.25c0.19,9.47,0.43,18.17,0.73,26.1    c0.06,2.56,0.87,5.05,2.34,7.14c1.51,1.98,3.65,3.4,6.06,4.03L227.45,580.51z"/>
		<path id="Path_12" class="st0" d="M229.87,418.5h6.77c1.44,0,2.87,0.27,4.22,0.79v-27.85c0-0.96-0.78-1.74-1.74-1.74    c0,0,0,0-0.01,0h-11.64c-1,0-1.82,0.81-1.82,1.82v27.78C227,418.78,228.43,418.51,229.87,418.5"/>
		<path id="Path_13" class="st0" d="M229.87,551.71h6.77c1.44,0,2.87-0.27,4.22-0.79v27.86c0,0.96-0.78,1.74-1.74,1.74l0,0h-11.64    c-1,0-1.82-0.81-1.82-1.82v-27.78c1.35,0.52,2.78,0.79,4.22,0.79"/>
		<path id="Path_14" class="st0" d="M346.38,580.51V551.5c2.41-0.6,4.54-2.02,6.02-4.02c1.43-2.1,2.18-4.6,2.15-7.14    c0.41-7.92,0.68-16.62,0.83-26.1c0.15-9.48,0.22-19.23,0.23-29.25c0-10.01-0.08-19.75-0.23-29.22c-0.16-9.48-0.43-18.18-0.83-26.1    c0.03-2.5-0.74-4.94-2.18-6.98c-1.5-1.93-3.59-3.32-5.94-3.96v-29.03c11.91-0.4,23.49,3.97,32.17,12.13    c7.42,9.88,11.19,22.02,10.66,34.36c0.29,7.76,0.52,15.76,0.69,24.01c0.17,8.24,0.25,16.57,0.23,24.97    c0,8.41-0.08,16.72-0.23,24.92c-0.16,8.2-0.39,16.1-0.69,23.7c0.54,12.38-3.23,24.56-10.66,34.48    C369.9,576.46,358.32,580.85,346.38,580.51 M334.75,580.51c-12.08,0.46-23.86-3.85-32.78-12c-7.68-9.88-11.51-22.22-10.77-34.71    c-0.16-7.6-0.27-15.52-0.36-23.75s-0.13-16.57-0.13-25.03c0-8.45,0.04-16.8,0.12-25.04c0.08-8.24,0.2-16.16,0.36-23.75    c-0.73-12.44,3.1-24.72,10.77-34.54c8.94-8.12,20.71-12.41,32.78-11.97v29.01c-2.4,0.62-4.53,2.01-6.06,3.96    c-1.46,2.04-2.27,4.47-2.34,6.98c-0.32,7.92-0.56,16.62-0.73,26.1c-0.17,9.48-0.27,19.22-0.29,29.22c0,10.02,0.1,19.77,0.29,29.25    c0.19,9.47,0.44,18.17,0.73,26.1c0.05,2.56,0.86,5.05,2.34,7.14c1.5,1.99,3.64,3.41,6.06,4.03L334.75,580.51z"/>
		<path id="Path_15" class="st0" d="M336.96,551.71h6.77c1.44,0,2.87-0.27,4.22-0.79v27.86c0,0.96-0.78,1.74-1.74,1.74l0,0h-11.64    c-1,0-1.82-0.81-1.82-1.82v-27.78c1.35,0.52,2.78,0.79,4.22,0.79"/>
		<path id="Path_16" class="st0" d="M337.29,418.5h6.77c1.44,0,2.87,0.27,4.22,0.79v-27.85c0-0.96-0.78-1.74-1.74-1.74    c0,0,0,0-0.01,0H334.9c-1,0-1.82,0.81-1.82,1.82v27.78C334.42,418.78,335.85,418.51,337.29,418.5"/>
		<path id="Path_17" class="st1" d="M352.08,677.9c7.37,0.89,14.06-4.37,14.95-11.73c0.12-0.99,0.13-2,0.02-2.99    c0.78-7.46-4.63-14.14-12.09-14.93c-0.96-0.1-1.92-0.1-2.88,0h-6.82v29.65H352.08z M372.1,663.17c0.52,9.9-7.09,18.35-16.99,18.87    c-1.01,0.05-2.02,0.02-3.03-0.1h-11.75v-37.71h11.75c9.93-1.09,18.85,6.08,19.94,16c0.11,0.97,0.13,1.94,0.08,2.91"/>
		<path id="Path_18" class="st1" d="M442.2,648.24h-15.36v12.61h13.73v4.06h-13.73v12.98h15.36v4.07h-20.28v-37.76h20.29V648.24z"/>
		<path id="Path_19" class="st1" d="M504.91,682.31c-7.57,0-12.94-4.22-13.04-10.43h5.25c0.37,3.84,3.79,6.66,7.63,6.29    c0.06-0.01,0.11-0.01,0.17-0.02c4.75,0,7.57-2.7,7.57-6.27c0-10.18-20.37-3.68-20.37-17.69c0-6.23,5.03-10.44,12.51-10.44    c6.11-0.72,11.66,3.58,12.49,9.68h-5.42c-0.67-3.41-3.81-5.77-7.27-5.46c-4.06-0.1-7.27,2-7.27,6.05    c0,9.74,20.37,3.68,20.37,17.64c-0.31,6.23-5.62,11.02-11.84,10.71c-0.24-0.01-0.47-0.03-0.7-0.06"/>
		<rect id="Rectangle_7" x="568.01" y="644.24" class="st1" width="4.93" height="37.71"/>
		<path id="Path_20" class="st1" d="M659.09,655.16h-5.89c-2.07-4.41-6.6-7.14-11.47-6.93c-7.56-0.15-13.81,5.86-13.95,13.42    c-0.01,0.47,0.01,0.94,0.04,1.4c-0.61,7.53,5,14.13,12.53,14.73c0.46,0.04,0.92,0.05,1.38,0.04c7.02,0.29,12.95-5.16,13.25-12.18    c0-0.02,0-0.04,0-0.06h-15.03v-3.99h20.27v3.79c-0.75,9.62-8.85,17.01-18.5,16.87c-10.62,0-19.22-8.62-19.22-19.24    c0-10.61,8.61-19.22,19.22-19.22c7.62-0.32,14.6,4.25,17.36,11.36"/>
		<path id="Path_21" class="st1" d="M739.68,644.19v37.76h-4.92l-19.79-30.03v30.03h-4.93v-37.76h4.93l19.79,29.98v-29.98H739.68z"/>
	</g>
</g>
</svg>